<?xml version="1.0" standalone="no"?>
<!DOCTYPE svg PUBLIC "-//W3C//DTD SVG 20010904//EN"
 "http://www.w3.org/TR/2001/REC-SVG-20010904/DTD/svg10.dtd">
<svg version="1.0" xmlns="http://www.w3.org/2000/svg"
 width="830.000000pt" height="775.000000pt" viewBox="0 0 830.000000 775.000000"
 preserveAspectRatio="xMidYMid meet">

<g transform="translate(0.000000,775.000000) scale(0.100000,-0.100000)"
fill="#FF0000" stroke="none">
<path d="M7614 7387 c-838 -415 -2873 -1435 -4239 -2127 -214 -109 -682 -345
-1040 -525 -357 -180 -660 -337 -671 -349 -30 -30 -329 -470 -547 -806 -285
-437 -327 -502 -448 -690 -61 -96 -176 -274 -254 -395 -279 -434 -405 -641
-404 -666 0 -21 20 -34 158 -101 405 -199 891 -555 1370 -1007 155 -145 421
-425 529 -556 41 -49 77 -91 81 -93 4 -1 63 14 132 33 196 57 489 131 669 170
91 20 173 38 183 41 21 7 -64 75 -448 364 -387 290 -761 547 -1580 1087 -126
83 -247 166 -268 185 l-38 33 134 145 c169 183 290 299 542 521 372 328 560
485 796 666 150 115 165 124 350 205 107 47 402 170 657 274 l463 188 88 116
c49 63 107 142 130 174 l41 59 238 97 c130 53 446 182 700 286 l464 189 129
182 c71 101 139 189 152 197 24 16 268 121 597 258 118 49 364 153 545 230
l330 141 167 162 c92 89 231 218 310 285 l143 123 67 136 c151 306 258 573
358 891 28 91 53 171 55 178 3 6 1 12 -3 11 -4 0 -291 -141 -638 -312z m-2334
-1769 c0 -2 -17 -48 -38 -103 l-37 -100 -100 -50 c-55 -27 -339 -162 -630
-299 -292 -138 -587 -277 -657 -311 l-128 -61 -76 -110 c-42 -60 -103 -148
-135 -195 l-58 -86 -278 -123 c-573 -253 -524 -228 -688 -353 -235 -180 -647
-528 -959 -811 -208 -189 -195 -179 -140 -107 199 259 681 760 944 982 295
248 333 276 519 374 98 52 212 111 254 131 l76 36 71 117 71 118 262 128 c144
71 388 188 542 261 154 72 415 198 580 279 444 219 605 294 605 283z"/>
<path d="M7445 5729 c-66 -28 -457 -188 -870 -355 -637 -259 -754 -310 -778
-337 -16 -18 -78 -101 -138 -185 -61 -83 -120 -159 -132 -168 -12 -9 -339
-143 -726 -298 l-704 -283 -151 -188 -151 -189 -355 -143 c-195 -79 -483 -195
-640 -259 l-285 -116 -190 -131 c-473 -325 -893 -641 -1250 -940 -71 -60 -131
-112 -132 -115 -1 -4 15 -18 35 -31 115 -76 325 -209 417 -265 l107 -66 296
76 c164 41 533 136 822 211 289 75 538 138 553 141 20 3 63 44 160 151 239
264 488 557 792 931 261 322 404 490 416 490 5 0 247 81 537 181 l527 180 53
-12 c35 -8 48 -15 39 -20 -13 -8 -225 -84 -715 -259 l-243 -86 -99 -129 c-54
-71 -97 -131 -96 -133 3 -3 575 191 1011 343 190 66 480 167 873 302 l102 36
78 101 c169 219 501 701 491 710 -2 2 -150 -50 -328 -115 -179 -65 -327 -117
-329 -115 -5 6 116 179 131 187 7 4 120 48 252 99 132 50 272 104 310 119 l70
27 72 120 c64 105 303 561 303 578 0 10 -11 7 -135 -45z m-3701 -2376 c-27
-38 -121 -166 -211 -285 -89 -120 -187 -256 -218 -302 -30 -46 -61 -88 -68
-93 -6 -5 -66 -27 -132 -47 -66 -21 -172 -60 -235 -86 -101 -43 -508 -201
-1156 -450 -110 -43 -211 -81 -225 -84 -31 -9 98 60 456 245 l290 150 141 192
c78 105 156 216 175 245 32 51 41 57 159 113 69 33 276 126 460 206 184 80
394 171 465 203 72 32 134 58 138 59 5 1 -13 -29 -39 -66z"/>
<path d="M6255 3675 c-5 -2 -347 -114 -760 -250 -412 -136 -845 -278 -960
-316 -116 -38 -217 -69 -225 -70 -8 0 -83 -82 -166 -182 -184 -221 -477 -557
-705 -808 -125 -138 -177 -188 -197 -191 -22 -4 -559 -130 -1351 -317 l-154
-36 219 -150 c468 -319 792 -551 1219 -874 l180 -137 80 7 c44 4 212 11 373
15 l292 7 -37 22 c-21 12 -164 102 -318 200 -154 98 -349 221 -433 274 -118
73 -149 97 -135 102 10 4 63 14 118 24 55 9 109 18 120 20 11 3 149 130 308
283 l287 279 194 53 193 52 149 130 c248 216 495 451 725 688 120 123 217 225
216 227 -3 2 -945 -212 -979 -223 -19 -6 -19 -4 -7 13 8 11 46 54 85 96 l70
76 120 26 c277 60 861 198 883 208 14 7 63 57 109 112 110 131 438 539 480
599 31 43 32 50 7 41z m-2031 -1307 c-53 -88 -789 -906 -829 -922 -7 -2 -183
-34 -391 -71 -209 -36 -399 -70 -423 -75 -41 -8 -51 -5 -120 30 -68 34 -73 39
-51 44 44 11 972 206 981 206 8 0 193 188 537 546 179 186 229 232 259 241 21
6 39 11 41 12 2 0 0 -5 -4 -11z"/>
</g>
</svg>
